<svg viewBox="0 0 400 300" xmlns="http://www.w3.org/2000/svg">
  <!-- Zebra silhouette with stripes -->
  <defs>
    <pattern id="zebraStripes" patternUnits="userSpaceOnUse" width="8" height="8">
      <rect width="8" height="8" fill="white"/>
      <rect width="4" height="8" fill="black"/>
    </pattern>
  </defs>
  
  <!-- Zebra body -->
  <path d="M80 180 C60 160 60 120 80 100 C100 80 140 70 180 75 C220 80 260 90 290 110 C320 130 330 160 320 190 C310 220 280 240 250 245 C220 250 180 245 150 235 C120 225 90 205 80 180 Z" fill="url(#zebraStripes)" stroke="black" stroke-width="2"/>
  
  <!-- Zebra head -->
  <path d="M290 110 C310 100 330 105 340 120 C350 135 345 150 335 160 C325 170 310 165 300 155 C295 145 290 130 290 110 Z" fill="url(#zebraStripes)" stroke="black" stroke-width="2"/>
  
  <!-- Zebra neck -->
  <path d="M290 110 C295 125 300 140 305 155 C310 170 315 180 300 155 C290 130 290 110 290 110 Z" fill="url(#zebraStripes)" stroke="black" stroke-width="1"/>
  
  <!-- Zebra legs -->
  <rect x="120" y="240" width="8" height="40" fill="url(#zebraStripes)" stroke="black" stroke-width="1"/>
  <rect x="160" y="240" width="8" height="40" fill="url(#zebraStripes)" stroke="black" stroke-width="1"/>
  <rect x="200" y="240" width="8" height="40" fill="url(#zebraStripes)" stroke="black" stroke-width="1"/>
  <rect x="240" y="240" width="8" height="40" fill="url(#zebraStripes)" stroke="black" stroke-width="1"/>
  
  <!-- Zebra tail -->
  <path d="M80 180 C70 185 60 190 55 200 C50 210 55 220 65 215 C75 210 80 195 80 180 Z" fill="url(#zebraStripes)" stroke="black" stroke-width="1"/>
  
  <!-- Zebra ear -->
  <ellipse cx="335" cy="115" rx="8" ry="12" fill="url(#zebraStripes)" stroke="black" stroke-width="1"/>
  
  <!-- Zebra eye -->
  <circle cx="330" cy="125" r="3" fill="black"/>
  
  <!-- Zebra mane -->
  <path d="M300 100 C305 95 310 90 315 95 C320 100 315 105 310 105 C305 105 300 105 300 100 Z" fill="black"/>
  <path d="M310 95 C315 90 320 85 325 90 C330 95 325 100 320 100 C315 100 310 100 310 95 Z" fill="black"/>
</svg>
